<?xml version="1.0" standalone="no"?><svg xmlns="http://www.w3.org/2000/svg" viewBox="0 0 1440 320"><path fill="#198754" fill-opacity="1" d="M0,128L30,138.7C60,149,120,171,180,154.7C240,139,300,85,360,101.3C420,117,480,203,540,208C600,213,660,139,720,128C780,117,840,171,900,197.3C960,224,1020,224,1080,192C1140,160,1200,96,1260,90.7C1320,85,1380,139,1410,165.3L1440,192L1440,320L1410,320C1380,320,1320,320,1260,320C1200,320,1140,320,1080,320C1020,320,960,320,900,320C840,320,780,320,720,320C660,320,600,320,540,320C480,320,420,320,360,320C300,320,240,320,180,320C120,320,60,320,30,320L0,320Z"></path></svg>